<?xml version="1.0" standalone="no"?>
<!DOCTYPE svg PUBLIC "-//W3C//DTD SVG 20010904//EN"
 "http://www.w3.org/TR/2001/REC-SVG-20010904/DTD/svg10.dtd">
<svg version="1.0" xmlns="http://www.w3.org/2000/svg"
 width="225.000000pt" height="225.000000pt" viewBox="0 0 225.000000 225.000000"
 preserveAspectRatio="xMidYMid meet">
<metadata>
Created by potrace 1.16, written by Peter Selinger 2001-2019
</metadata>
<g transform="translate(0.000000,225.000000) scale(0.100000,-0.100000)"
fill="#000000" stroke="none">
<path d="M1228 1328 c-3 -589 -4 -625 -22 -661 -40 -80 -120 -135 -211 -144
-159 -17 -302 129 -280 286 19 139 155 246 290 227 l45 -6 0 145 0 145 -78 0
c-150 0 -274 -52 -383 -160 -104 -103 -159 -236 -159 -388 0 -236 162 -445
399 -516 69 -20 208 -21 286 -1 178 47 320 187 381 375 15 47 18 104 22 408 3
330 5 353 20 339 54 -49 260 -117 352 -117 l30 0 0 138 0 137 -61 12 c-174 33
-320 178 -336 335 l-6 55 -75 7 c-41 3 -106 6 -143 6 l-69 0 -2 -622z"/>
</g>
</svg>
